G04 #@! TF.FileFunction,Soldermask,Top*
%FSLAX46Y46*%
G04 Gerber Fmt 4.6, Leading zero omitted, Abs format (unit mm)*
G04 Created by KiCad (PCBNEW 4.0.2+dfsg1-2~bpo8+1-stable) date Tue 05 Jul 2016 08:57:00 AM CDT*
%MOMM*%
G01*
G04 APERTURE LIST*
%ADD10C,0.100000*%
%ADD11R,1.727200X1.727200*%
%ADD12O,1.727200X1.727200*%
%ADD13R,0.600000X1.550000*%
%ADD14R,0.250000X1.000000*%
%ADD15R,1.000000X0.250000*%
%ADD16R,1.300000X1.500000*%
%ADD17R,1.250000X1.500000*%
%ADD18R,1.500000X1.250000*%
%ADD19R,1.800860X3.149600*%
%ADD20R,3.149600X1.800860*%
%ADD21R,1.350000X0.400000*%
%ADD22O,0.950000X1.250000*%
%ADD23O,1.550000X1.000000*%
%ADD24R,1.198880X1.198880*%
%ADD25C,1.524000*%
%ADD26R,2.032000X2.032000*%
%ADD27O,2.032000X2.032000*%
%ADD28R,1.500000X1.300000*%
%ADD29R,3.200000X1.000000*%
%ADD30R,1.000000X3.200000*%
%ADD31R,1.000000X0.400000*%
%ADD32O,2.400000X1.100000*%
%ADD33R,1.100000X2.400000*%
%ADD34O,1.100000X2.400000*%
%ADD35C,1.422400*%
%ADD36R,1.727200X2.032000*%
%ADD37O,1.727200X2.032000*%
%ADD38R,0.600000X0.550000*%
%ADD39R,0.500000X0.500000*%
%ADD40R,0.800000X0.800000*%
%ADD41R,0.600000X2.000000*%
%ADD42R,2.032000X3.657600*%
%ADD43R,2.032000X1.016000*%
%ADD44C,0.254000*%
%ADD45C,0.203200*%
G04 APERTURE END LIST*
D10*
D11*
X24130000Y-111506000D03*
D12*
X21590000Y-111506000D03*
X24130000Y-108966000D03*
X21590000Y-108966000D03*
X24130000Y-106426000D03*
X21590000Y-106426000D03*
X24130000Y-103886000D03*
X21590000Y-103886000D03*
X24130000Y-101346000D03*
X21590000Y-101346000D03*
X24130000Y-98806000D03*
X21590000Y-98806000D03*
X24130000Y-96266000D03*
X21590000Y-96266000D03*
X24130000Y-93726000D03*
X21590000Y-93726000D03*
X24130000Y-91186000D03*
X21590000Y-91186000D03*
X24130000Y-88646000D03*
X21590000Y-88646000D03*
D13*
X99187000Y-24762500D03*
X97917000Y-24762500D03*
X96647000Y-24762500D03*
X95377000Y-24762500D03*
X95377000Y-30162500D03*
X96647000Y-30162500D03*
X97917000Y-30162500D03*
X99187000Y-30162500D03*
D14*
X72838000Y-90820000D03*
X72338000Y-90820000D03*
X71838000Y-90820000D03*
X71338000Y-90820000D03*
X70838000Y-90820000D03*
X70338000Y-90820000D03*
X69838000Y-90820000D03*
X69338000Y-90820000D03*
X68838000Y-90820000D03*
X68338000Y-90820000D03*
X67838000Y-90820000D03*
X67338000Y-90820000D03*
X66838000Y-90820000D03*
X66338000Y-90820000D03*
X65838000Y-90820000D03*
X65338000Y-90820000D03*
D15*
X63388000Y-92770000D03*
X63388000Y-93270000D03*
X63388000Y-93770000D03*
X63388000Y-94270000D03*
X63388000Y-94770000D03*
X63388000Y-95270000D03*
X63388000Y-95770000D03*
X63388000Y-96270000D03*
X63388000Y-96770000D03*
X63388000Y-97270000D03*
X63388000Y-97770000D03*
X63388000Y-98270000D03*
X63388000Y-98770000D03*
X63388000Y-99270000D03*
X63388000Y-99770000D03*
X63388000Y-100270000D03*
D14*
X65338000Y-102220000D03*
X65838000Y-102220000D03*
X66338000Y-102220000D03*
X66838000Y-102220000D03*
X67338000Y-102220000D03*
X67838000Y-102220000D03*
X68338000Y-102220000D03*
X68838000Y-102220000D03*
X69338000Y-102220000D03*
X69838000Y-102220000D03*
X70338000Y-102220000D03*
X70838000Y-102220000D03*
X71338000Y-102220000D03*
X71838000Y-102220000D03*
X72338000Y-102220000D03*
X72838000Y-102220000D03*
D15*
X74788000Y-100270000D03*
X74788000Y-99770000D03*
X74788000Y-99270000D03*
X74788000Y-98770000D03*
X74788000Y-98270000D03*
X74788000Y-97770000D03*
X74788000Y-97270000D03*
X74788000Y-96770000D03*
X74788000Y-96270000D03*
X74788000Y-95770000D03*
X74788000Y-95270000D03*
X74788000Y-94770000D03*
X74788000Y-94270000D03*
X74788000Y-93770000D03*
X74788000Y-93270000D03*
X74788000Y-92770000D03*
D16*
X96520000Y-87550000D03*
X96520000Y-90250000D03*
D17*
X64008000Y-23348000D03*
X64008000Y-20848000D03*
X102362000Y-33000000D03*
X102362000Y-30500000D03*
D18*
X106700000Y-86360000D03*
X109200000Y-86360000D03*
X109200000Y-83820000D03*
X106700000Y-83820000D03*
D17*
X36068000Y-32238000D03*
X36068000Y-29738000D03*
X44196000Y-29484000D03*
X44196000Y-31984000D03*
X26670000Y-33802000D03*
X26670000Y-36302000D03*
X29464000Y-33802000D03*
X29464000Y-36302000D03*
X53340000Y-28468000D03*
X53340000Y-30968000D03*
D18*
X24658000Y-71882000D03*
X27158000Y-71882000D03*
D17*
X75057000Y-77998000D03*
X75057000Y-80498000D03*
X39306500Y-63984500D03*
X39306500Y-66484500D03*
X69977000Y-77871000D03*
X69977000Y-80371000D03*
X63246000Y-83078000D03*
X63246000Y-85578000D03*
X65532000Y-83078000D03*
X65532000Y-85578000D03*
D19*
X61722000Y-73312020D03*
X61722000Y-77563980D03*
D20*
X72483980Y-73406000D03*
X68232020Y-73406000D03*
D17*
X65532000Y-77236000D03*
X65532000Y-79736000D03*
X80772000Y-77704000D03*
X80772000Y-75204000D03*
D21*
X20612540Y-73629100D03*
X20612540Y-74279100D03*
X20612540Y-74929100D03*
X20612540Y-75579100D03*
X20612540Y-76229100D03*
D22*
X20612540Y-72429100D03*
X20612540Y-77429100D03*
D23*
X17912540Y-71429100D03*
X17912540Y-78429100D03*
D24*
X96520000Y-98010980D03*
X96520000Y-100109020D03*
X96520000Y-95029020D03*
X96520000Y-92930980D03*
D25*
X26670000Y-57150000D03*
X29210000Y-57150000D03*
X31750000Y-57150000D03*
X34290000Y-57150000D03*
X36830000Y-57150000D03*
X39370000Y-57150000D03*
X41910000Y-57150000D03*
X24130000Y-57150000D03*
X44450000Y-57150000D03*
X24130000Y-41910000D03*
X26670000Y-41910000D03*
X29210000Y-41910000D03*
X31750000Y-41910000D03*
X34290000Y-41910000D03*
X36830000Y-41910000D03*
X39370000Y-41910000D03*
X41910000Y-41910000D03*
X44450000Y-41910000D03*
X53340000Y-57150000D03*
X55880000Y-57150000D03*
X58420000Y-57150000D03*
X60960000Y-57150000D03*
X63500000Y-57150000D03*
X66040000Y-57150000D03*
X68580000Y-57150000D03*
X50800000Y-57150000D03*
X71120000Y-57150000D03*
X50800000Y-41910000D03*
X53340000Y-41910000D03*
X55880000Y-41910000D03*
X58420000Y-41910000D03*
X60960000Y-41910000D03*
X63500000Y-41910000D03*
X66040000Y-41910000D03*
X68580000Y-41910000D03*
X71120000Y-41910000D03*
X80010000Y-57150000D03*
X82550000Y-57150000D03*
X85090000Y-57150000D03*
X87630000Y-57150000D03*
X90170000Y-57150000D03*
X92710000Y-57150000D03*
X95250000Y-57150000D03*
X77470000Y-57150000D03*
X97790000Y-57150000D03*
X77470000Y-41910000D03*
X80010000Y-41910000D03*
X82550000Y-41910000D03*
X85090000Y-41910000D03*
X87630000Y-41910000D03*
X90170000Y-41910000D03*
X92710000Y-41910000D03*
X95250000Y-41910000D03*
X97790000Y-41910000D03*
X106680000Y-57150000D03*
X109220000Y-57150000D03*
X111760000Y-57150000D03*
X114300000Y-57150000D03*
X116840000Y-57150000D03*
X119380000Y-57150000D03*
X121920000Y-57150000D03*
X104140000Y-57150000D03*
X124460000Y-57150000D03*
X104140000Y-41910000D03*
X106680000Y-41910000D03*
X109220000Y-41910000D03*
X111760000Y-41910000D03*
X114300000Y-41910000D03*
X116840000Y-41910000D03*
X119380000Y-41910000D03*
X121920000Y-41910000D03*
X124460000Y-41910000D03*
D26*
X39624000Y-29210000D03*
D27*
X39624000Y-31750000D03*
D11*
X49022000Y-105156000D03*
D12*
X46482000Y-105156000D03*
X49022000Y-102616000D03*
X46482000Y-102616000D03*
X49022000Y-100076000D03*
X46482000Y-100076000D03*
X49022000Y-97536000D03*
X46482000Y-97536000D03*
X49022000Y-94996000D03*
X46482000Y-94996000D03*
X49022000Y-92456000D03*
X46482000Y-92456000D03*
X49022000Y-89916000D03*
X46482000Y-89916000D03*
X49022000Y-87376000D03*
X46482000Y-87376000D03*
D11*
X89154000Y-88392000D03*
D12*
X91694000Y-88392000D03*
X89154000Y-90932000D03*
X91694000Y-90932000D03*
X89154000Y-93472000D03*
X91694000Y-93472000D03*
X89154000Y-96012000D03*
X91694000Y-96012000D03*
X89154000Y-98552000D03*
X91694000Y-98552000D03*
X89154000Y-101092000D03*
X91694000Y-101092000D03*
X89154000Y-103632000D03*
X91694000Y-103632000D03*
X89154000Y-106172000D03*
X91694000Y-106172000D03*
D16*
X41402000Y-112188000D03*
X41402000Y-114888000D03*
X41148000Y-128952000D03*
X41148000Y-131652000D03*
X66294000Y-120570000D03*
X66294000Y-123270000D03*
X118999000Y-119794000D03*
X118999000Y-117094000D03*
X116459000Y-119714000D03*
X116459000Y-117014000D03*
X30480000Y-120490000D03*
X30480000Y-123190000D03*
X126746000Y-64690000D03*
X126746000Y-67390000D03*
X121666000Y-64690000D03*
X121666000Y-67390000D03*
D28*
X46021000Y-24511000D03*
X48721000Y-24511000D03*
D16*
X78486000Y-89996000D03*
X78486000Y-87296000D03*
X60198000Y-85424000D03*
X60198000Y-82724000D03*
X96520000Y-105490000D03*
X96520000Y-102790000D03*
X78359000Y-77898000D03*
X78359000Y-80598000D03*
X87122000Y-81454000D03*
X87122000Y-84154000D03*
D28*
X84375000Y-77343000D03*
X87075000Y-77343000D03*
D16*
X89408000Y-81454000D03*
X89408000Y-84154000D03*
D29*
X51660000Y-111030000D03*
X44860000Y-111030000D03*
X44860000Y-115030000D03*
X51660000Y-115030000D03*
X51660000Y-127540000D03*
X44860000Y-127540000D03*
X44860000Y-131540000D03*
X51660000Y-131540000D03*
X63090000Y-119158000D03*
X56290000Y-119158000D03*
X56290000Y-123158000D03*
X63090000Y-123158000D03*
X40484000Y-119158000D03*
X33684000Y-119158000D03*
X33684000Y-123158000D03*
X40484000Y-123158000D03*
D30*
X131286000Y-85442000D03*
X131286000Y-78642000D03*
X127286000Y-78642000D03*
X127286000Y-85442000D03*
D31*
X38841000Y-102747000D03*
X38841000Y-102097000D03*
X38841000Y-101447000D03*
X38841000Y-100797000D03*
X38841000Y-100147000D03*
X38841000Y-99497000D03*
X38841000Y-98847000D03*
X38841000Y-98197000D03*
X38841000Y-97547000D03*
X38841000Y-96897000D03*
X33041000Y-96897000D03*
X33041000Y-97547000D03*
X33041000Y-98197000D03*
X33041000Y-98847000D03*
X33041000Y-99497000D03*
X33041000Y-100147000D03*
X33041000Y-100797000D03*
X33041000Y-101447000D03*
X33041000Y-102097000D03*
X33041000Y-102747000D03*
D13*
X80645000Y-86012000D03*
X81915000Y-86012000D03*
X83185000Y-86012000D03*
X84455000Y-86012000D03*
X84455000Y-80612000D03*
X83185000Y-80612000D03*
X81915000Y-80612000D03*
X80645000Y-80612000D03*
D32*
X107440000Y-93160000D03*
X107440000Y-95160000D03*
X107440000Y-97160000D03*
X107440000Y-99160000D03*
X107440000Y-101160000D03*
X107440000Y-103160000D03*
D33*
X123190000Y-90170000D03*
D34*
X121190000Y-90170000D03*
X119190000Y-90170000D03*
X117190000Y-90170000D03*
X115190000Y-90170000D03*
X113190000Y-90170000D03*
X111190000Y-90170000D03*
X109190000Y-90170000D03*
X109190000Y-106170000D03*
X111190000Y-106170000D03*
X113190000Y-106170000D03*
X115190000Y-106170000D03*
X117190000Y-106170000D03*
X119190000Y-106170000D03*
X121190000Y-106170000D03*
X123190000Y-106170000D03*
D35*
X69977000Y-84328000D03*
X75057000Y-84328000D03*
D36*
X108712000Y-113284000D03*
D37*
X111252000Y-113284000D03*
X113792000Y-113284000D03*
X116332000Y-113284000D03*
X118872000Y-113284000D03*
X121412000Y-113284000D03*
X123952000Y-113284000D03*
X126492000Y-113284000D03*
D36*
X106426000Y-70866000D03*
D37*
X108966000Y-70866000D03*
X111506000Y-70866000D03*
X114046000Y-70866000D03*
X116586000Y-70866000D03*
X119126000Y-70866000D03*
X121666000Y-70866000D03*
X124206000Y-70866000D03*
X126746000Y-70866000D03*
X129286000Y-70866000D03*
D38*
X31612000Y-31388000D03*
X33382000Y-31358000D03*
X33412000Y-33128000D03*
X31612000Y-33128000D03*
D39*
X32512000Y-31408000D03*
X32512000Y-32258000D03*
X32512000Y-33108000D03*
X33362000Y-32258000D03*
X31662000Y-32258000D03*
D31*
X50068000Y-30048000D03*
X50068000Y-29248000D03*
X50068000Y-28448000D03*
X50068000Y-27648000D03*
X50068000Y-26848000D03*
X47468000Y-30048000D03*
X47468000Y-29248000D03*
X47468000Y-28448000D03*
X47468000Y-27648000D03*
X47468000Y-26848000D03*
D40*
X48768000Y-29848000D03*
X48768000Y-27048000D03*
D17*
X69850000Y-107295000D03*
X69850000Y-104795000D03*
D18*
X57551000Y-102108000D03*
X60051000Y-102108000D03*
D25*
X58547000Y-31496000D03*
X58547000Y-28956000D03*
X58547000Y-26416000D03*
D41*
X66675000Y-30354000D03*
X67945000Y-30354000D03*
X69215000Y-30354000D03*
X70485000Y-30354000D03*
X71755000Y-30354000D03*
X73025000Y-30354000D03*
X74295000Y-30354000D03*
X75565000Y-30354000D03*
X76835000Y-30354000D03*
X78105000Y-30354000D03*
X79375000Y-30354000D03*
X80645000Y-30354000D03*
X81915000Y-30354000D03*
X83185000Y-30354000D03*
X83185000Y-20954000D03*
X81915000Y-20954000D03*
X80645000Y-20954000D03*
X79375000Y-20954000D03*
X78105000Y-20954000D03*
X76835000Y-20954000D03*
X75565000Y-20954000D03*
X74295000Y-20954000D03*
X73025000Y-20954000D03*
X71755000Y-20954000D03*
X70485000Y-20954000D03*
X69215000Y-20954000D03*
X67945000Y-20954000D03*
X66675000Y-20954000D03*
D17*
X42037000Y-105116000D03*
X42037000Y-102616000D03*
D42*
X36195000Y-69596000D03*
D43*
X29591000Y-69596000D03*
X29591000Y-71882000D03*
X29591000Y-67310000D03*
D16*
X113792000Y-119714000D03*
X113792000Y-117014000D03*
X111252000Y-119841000D03*
X111252000Y-117141000D03*
X108458000Y-117141000D03*
X108458000Y-119841000D03*
X64008000Y-30480000D03*
X64008000Y-27780000D03*
D44*
G36*
X61595000Y-21590000D02*
X52451000Y-21590000D01*
X52451000Y-16637000D01*
X61595000Y-16637000D01*
X61595000Y-21590000D01*
X61595000Y-21590000D01*
G37*
X61595000Y-21590000D02*
X52451000Y-21590000D01*
X52451000Y-16637000D01*
X61595000Y-16637000D01*
X61595000Y-21590000D01*
G36*
X45974000Y-22606000D02*
X32131000Y-22606000D01*
X32131000Y-16637000D01*
X45974000Y-16637000D01*
X45974000Y-22606000D01*
X45974000Y-22606000D01*
G37*
X45974000Y-22606000D02*
X32131000Y-22606000D01*
X32131000Y-16637000D01*
X45974000Y-16637000D01*
X45974000Y-22606000D01*
D45*
G36*
X20345400Y-41173400D02*
X16611600Y-41173400D01*
X16611600Y-32740600D01*
X20345400Y-32740600D01*
X20345400Y-41173400D01*
X20345400Y-41173400D01*
G37*
X20345400Y-41173400D02*
X16611600Y-41173400D01*
X16611600Y-32740600D01*
X20345400Y-32740600D01*
X20345400Y-41173400D01*
M02*
