G04 #@! TF.FileFunction,Soldermask,Bot*
%FSLAX46Y46*%
G04 Gerber Fmt 4.6, Leading zero omitted, Abs format (unit mm)*
G04 Created by KiCad (PCBNEW 4.0.2+dfsg1-2~bpo8+1-stable) date Tue 05 Jul 2016 08:57:00 AM CDT*
%MOMM*%
G01*
G04 APERTURE LIST*
%ADD10C,0.100000*%
%ADD11R,1.727200X1.727200*%
%ADD12O,1.727200X1.727200*%
%ADD13O,0.950000X1.250000*%
%ADD14O,1.550000X1.000000*%
%ADD15C,1.524000*%
%ADD16R,2.032000X2.032000*%
%ADD17O,2.032000X2.032000*%
%ADD18C,1.422400*%
%ADD19R,1.727200X2.032000*%
%ADD20O,1.727200X2.032000*%
G04 APERTURE END LIST*
D10*
D11*
X24130000Y-111506000D03*
D12*
X21590000Y-111506000D03*
X24130000Y-108966000D03*
X21590000Y-108966000D03*
X24130000Y-106426000D03*
X21590000Y-106426000D03*
X24130000Y-103886000D03*
X21590000Y-103886000D03*
X24130000Y-101346000D03*
X21590000Y-101346000D03*
X24130000Y-98806000D03*
X21590000Y-98806000D03*
X24130000Y-96266000D03*
X21590000Y-96266000D03*
X24130000Y-93726000D03*
X21590000Y-93726000D03*
X24130000Y-91186000D03*
X21590000Y-91186000D03*
X24130000Y-88646000D03*
X21590000Y-88646000D03*
D13*
X20612540Y-72429100D03*
X20612540Y-77429100D03*
D14*
X17912540Y-71429100D03*
X17912540Y-78429100D03*
D15*
X26670000Y-57150000D03*
X29210000Y-57150000D03*
X31750000Y-57150000D03*
X34290000Y-57150000D03*
X36830000Y-57150000D03*
X39370000Y-57150000D03*
X41910000Y-57150000D03*
X24130000Y-57150000D03*
X44450000Y-57150000D03*
X24130000Y-41910000D03*
X26670000Y-41910000D03*
X29210000Y-41910000D03*
X31750000Y-41910000D03*
X34290000Y-41910000D03*
X36830000Y-41910000D03*
X39370000Y-41910000D03*
X41910000Y-41910000D03*
X44450000Y-41910000D03*
X53340000Y-57150000D03*
X55880000Y-57150000D03*
X58420000Y-57150000D03*
X60960000Y-57150000D03*
X63500000Y-57150000D03*
X66040000Y-57150000D03*
X68580000Y-57150000D03*
X50800000Y-57150000D03*
X71120000Y-57150000D03*
X50800000Y-41910000D03*
X53340000Y-41910000D03*
X55880000Y-41910000D03*
X58420000Y-41910000D03*
X60960000Y-41910000D03*
X63500000Y-41910000D03*
X66040000Y-41910000D03*
X68580000Y-41910000D03*
X71120000Y-41910000D03*
X80010000Y-57150000D03*
X82550000Y-57150000D03*
X85090000Y-57150000D03*
X87630000Y-57150000D03*
X90170000Y-57150000D03*
X92710000Y-57150000D03*
X95250000Y-57150000D03*
X77470000Y-57150000D03*
X97790000Y-57150000D03*
X77470000Y-41910000D03*
X80010000Y-41910000D03*
X82550000Y-41910000D03*
X85090000Y-41910000D03*
X87630000Y-41910000D03*
X90170000Y-41910000D03*
X92710000Y-41910000D03*
X95250000Y-41910000D03*
X97790000Y-41910000D03*
X106680000Y-57150000D03*
X109220000Y-57150000D03*
X111760000Y-57150000D03*
X114300000Y-57150000D03*
X116840000Y-57150000D03*
X119380000Y-57150000D03*
X121920000Y-57150000D03*
X104140000Y-57150000D03*
X124460000Y-57150000D03*
X104140000Y-41910000D03*
X106680000Y-41910000D03*
X109220000Y-41910000D03*
X111760000Y-41910000D03*
X114300000Y-41910000D03*
X116840000Y-41910000D03*
X119380000Y-41910000D03*
X121920000Y-41910000D03*
X124460000Y-41910000D03*
D16*
X39624000Y-29210000D03*
D17*
X39624000Y-31750000D03*
D11*
X49022000Y-105156000D03*
D12*
X46482000Y-105156000D03*
X49022000Y-102616000D03*
X46482000Y-102616000D03*
X49022000Y-100076000D03*
X46482000Y-100076000D03*
X49022000Y-97536000D03*
X46482000Y-97536000D03*
X49022000Y-94996000D03*
X46482000Y-94996000D03*
X49022000Y-92456000D03*
X46482000Y-92456000D03*
X49022000Y-89916000D03*
X46482000Y-89916000D03*
X49022000Y-87376000D03*
X46482000Y-87376000D03*
D11*
X89154000Y-88392000D03*
D12*
X91694000Y-88392000D03*
X89154000Y-90932000D03*
X91694000Y-90932000D03*
X89154000Y-93472000D03*
X91694000Y-93472000D03*
X89154000Y-96012000D03*
X91694000Y-96012000D03*
X89154000Y-98552000D03*
X91694000Y-98552000D03*
X89154000Y-101092000D03*
X91694000Y-101092000D03*
X89154000Y-103632000D03*
X91694000Y-103632000D03*
X89154000Y-106172000D03*
X91694000Y-106172000D03*
D18*
X69977000Y-84328000D03*
X75057000Y-84328000D03*
D19*
X108712000Y-113284000D03*
D20*
X111252000Y-113284000D03*
X113792000Y-113284000D03*
X116332000Y-113284000D03*
X118872000Y-113284000D03*
X121412000Y-113284000D03*
X123952000Y-113284000D03*
X126492000Y-113284000D03*
D19*
X106426000Y-70866000D03*
D20*
X108966000Y-70866000D03*
X111506000Y-70866000D03*
X114046000Y-70866000D03*
X116586000Y-70866000D03*
X119126000Y-70866000D03*
X121666000Y-70866000D03*
X124206000Y-70866000D03*
X126746000Y-70866000D03*
X129286000Y-70866000D03*
D15*
X58547000Y-31496000D03*
X58547000Y-28956000D03*
X58547000Y-26416000D03*
M02*
