M48
;DRILL file {KiCad 4.0.2+dfsg1-2~bpo8+1-stable} date Tue 05 Jul 2016 08:57:24 AM CDT
;FORMAT={-:-/ absolute / inch / decimal}
FMAT,2
INCH,TZ
T1C0.016
T2C0.020
T3C0.022
T4C0.030
T5C0.040
T6C0.040
%
G90
G05
M72
T1
X0.95Y-1.715
X0.95Y-1.99
X1.05Y-1.74
X1.05Y-2.02
X1.245Y-1.17
X1.25Y-1.77
X1.25Y-2.045
X1.315Y-1.17
X1.315Y-1.351
X1.35Y-1.795
X1.35Y-2.07
X1.445Y-3.78
X1.45Y-1.82
X1.45Y-2.095
X1.455Y-4.036
X1.458Y-3.875
X1.459Y-3.936
X1.5475Y-2.6875
X1.55Y-1.845
X1.55Y-2.13
X1.584Y-3.845
X1.62Y-5.005
X1.652Y-3.761
X1.655Y-2.155
X1.7225Y-4.0075
X1.745Y-0.97
X1.75Y-1.875
X1.75Y-2.185
X1.875Y-1.24
X1.88Y-3.49
X1.88Y-3.59
X1.88Y-3.69
X1.88Y-3.79
X1.88Y-4.09
X1.881Y-3.886
X2.Y-1.715
X2.Y-1.98
X2.1Y-1.745
X2.1Y-2.005
X2.3Y-1.77
X2.3Y-2.035
X2.3Y-3.35
X2.305Y-3.8
X2.31Y-3.26
X2.34Y-3.95
X2.345Y-4.335
X2.36Y-3.12
X2.4Y-1.795
X2.4Y-2.06
X2.402Y-3.852
X2.485Y-3.51
X2.5Y-1.82
X2.5Y-2.09
X2.55Y-3.64
X2.55Y-3.7
X2.55Y-3.885
X2.575Y-3.76
X2.58Y-3.2
X2.58Y-3.67
X2.59Y-3.84
X2.6Y-2.115
X2.605Y-1.845
X2.63Y-3.67
X2.65Y-4.065
X2.655Y-3.505
X2.665Y-3.68
X2.685Y-3.705
X2.69Y-2.81
X2.695Y-4.125
X2.7Y-2.15
X2.71Y-3.73
X2.725Y-1.875
X2.73Y-3.83
X2.77Y-0.92
X2.77Y-3.51
X2.77Y-3.93
X2.795Y-3.955
X2.8Y-2.185
X2.82Y-3.98
X2.8275Y-0.9225
X2.83Y-4.12
X2.86Y-3.78
X2.8725Y-0.935
X2.925Y-0.9075
X2.945Y-3.62
X2.975Y-4.04
X2.98Y-0.9025
X3.0275Y-0.9
X3.05Y-1.71
X3.05Y-1.98
X3.085Y-0.8925
X3.09Y-3.6
X3.1075Y-2.15
X3.1225Y-1.1025
X3.15Y-1.74
X3.16Y-4.06
X3.175Y-1.11
X3.2Y-2.005
X3.23Y-3.32
X3.25Y-3.03
X3.2725Y-1.08
X3.305Y-4.75
X3.32Y-1.77
X3.32Y-2.97
X3.34Y-0.8225
X3.35Y-2.035
X3.405Y-1.795
X3.42Y-4.645
X3.43Y-0.905
X3.43Y-3.12
X3.4475Y-0.85
X3.45Y-2.06
X3.505Y-1.82
X3.52Y-3.14
X3.5475Y-1.29
X3.55Y-0.78
X3.55Y-2.09
X3.65Y-1.845
X3.65Y-2.115
X3.6825Y-0.905
X3.75Y-2.15
X3.76Y-1.12
X3.785Y-1.265
X3.8Y-3.37
X3.8Y-4.23
X3.85Y-1.875
X3.85Y-2.19
X3.89Y-1.265
X4.1Y-1.71
X4.1Y-1.98
X4.117Y-1.194
X4.12Y-3.83
X4.135Y-4.8
X4.2Y-1.74
X4.2Y-2.005
X4.33Y-3.9
X4.38Y-3.27
X4.4Y-1.77
X4.4Y-2.035
X4.5Y-1.795
X4.5Y-2.06
X4.6Y-1.82
X4.6Y-2.09
X4.7Y-1.84
X4.7Y-2.115
X4.7Y-2.55
X4.755Y-4.715
X4.77Y-4.02
X4.8Y-2.15
X4.85Y-4.08
X4.9Y-1.875
X4.9Y-2.19
X5.09Y-2.55
T4
X0.95Y-1.65
X0.95Y-2.25
X1.05Y-1.65
X1.05Y-2.25
X1.15Y-1.65
X1.15Y-2.25
X1.25Y-1.65
X1.25Y-2.25
X1.35Y-1.65
X1.35Y-2.25
X1.45Y-1.65
X1.45Y-2.25
X1.55Y-1.65
X1.55Y-2.25
X1.65Y-1.65
X1.65Y-2.25
X1.75Y-1.65
X1.75Y-2.25
X2.Y-1.65
X2.Y-2.25
X2.1Y-1.65
X2.1Y-2.25
X2.2Y-1.65
X2.2Y-2.25
X2.3Y-1.65
X2.3Y-2.25
X2.4Y-1.65
X2.4Y-2.25
X2.5Y-1.65
X2.5Y-2.25
X2.6Y-1.65
X2.6Y-2.25
X2.7Y-1.65
X2.7Y-2.25
X2.755Y-3.32
X2.8Y-1.65
X2.8Y-2.25
X2.955Y-3.32
X3.05Y-1.65
X3.05Y-2.25
X3.15Y-1.65
X3.15Y-2.25
X3.25Y-1.65
X3.25Y-2.25
X3.35Y-1.65
X3.35Y-2.25
X3.45Y-1.65
X3.45Y-2.25
X3.55Y-1.65
X3.55Y-2.25
X3.65Y-1.65
X3.65Y-2.25
X3.75Y-1.65
X3.75Y-2.25
X3.85Y-1.65
X3.85Y-2.25
X4.1Y-1.65
X4.1Y-2.25
X4.2Y-1.65
X4.2Y-2.25
X4.3Y-1.65
X4.3Y-2.25
X4.4Y-1.65
X4.4Y-2.25
X4.5Y-1.65
X4.5Y-2.25
X4.6Y-1.65
X4.6Y-2.25
X4.7Y-1.65
X4.7Y-2.25
X4.8Y-1.65
X4.8Y-2.25
X4.9Y-1.65
X4.9Y-2.25
T5
X0.85Y-3.49
X0.85Y-3.59
X0.85Y-3.69
X0.85Y-3.79
X0.85Y-3.89
X0.85Y-3.99
X0.85Y-4.09
X0.85Y-4.19
X0.85Y-4.29
X0.85Y-4.39
X0.95Y-3.49
X0.95Y-3.59
X0.95Y-3.69
X0.95Y-3.79
X0.95Y-3.89
X0.95Y-3.99
X0.95Y-4.09
X0.95Y-4.19
X0.95Y-4.29
X0.95Y-4.39
X1.56Y-1.15
X1.56Y-1.25
X1.83Y-3.44
X1.83Y-3.54
X1.83Y-3.64
X1.83Y-3.74
X1.83Y-3.84
X1.83Y-3.94
X1.83Y-4.04
X1.83Y-4.14
X1.93Y-3.44
X1.93Y-3.54
X1.93Y-3.64
X1.93Y-3.74
X1.93Y-3.84
X1.93Y-3.94
X1.93Y-4.04
X1.93Y-4.14
X3.51Y-3.48
X3.51Y-3.58
X3.51Y-3.68
X3.51Y-3.78
X3.51Y-3.88
X3.51Y-3.98
X3.51Y-4.08
X3.51Y-4.18
X3.61Y-3.48
X3.61Y-3.58
X3.61Y-3.68
X3.61Y-3.78
X3.61Y-3.88
X3.61Y-3.98
X3.61Y-4.08
X3.61Y-4.18
X4.19Y-2.79
X4.28Y-4.46
X4.29Y-2.79
X4.38Y-4.46
X4.39Y-2.79
X4.48Y-4.46
X4.49Y-2.79
X4.58Y-4.46
X4.59Y-2.79
X4.68Y-4.46
X4.69Y-2.79
X4.78Y-4.46
X4.79Y-2.79
X4.88Y-4.46
X4.89Y-2.79
X4.98Y-4.46
X4.99Y-2.79
X5.09Y-2.79
T6
X2.305Y-1.04
X2.305Y-1.14
X2.305Y-1.24
T2
X0.6924Y-2.8122G85X0.718Y-2.8122
G05
X0.6924Y-3.0878G85X0.718Y-3.0878
G05
T3
X0.8115Y-2.8456G85X0.8115Y-2.8574
G05
X0.8115Y-3.0425G85X0.8115Y-3.0543
G05
T0
M30
